
            <svg xmlns="http://www.w3.org/2000/svg" xmlns:cc="http://creativecommons.org/ns#" xmlns:rdf="http://www.w3.org/1999/02/22-rdf-syntax-ns#" version="1.1" width="827.1874389648438" height="1166.109375">
              <defs>
                <style type="text/css">svg{background-color:#fff}text,tspan{font:12px Arial}path{fill-opacity:0;stroke-width:2px;stroke:#000}circle{fill:#6b6659;stroke-width:2px;stroke:#000}.anchor text,.any-character text{fill:#fff}.anchor rect,.any-character rect{fill:#6b6659}.escape text,.charset-escape text,.literal text{fill:#000}.escape rect,.charset-escape rect{fill:#bada55}.literal rect{fill:#dae9e5}.charset .charset-box{fill:#cbcbba}.subexp .subexp-label tspan,.charset .charset-label tspan,.match-fragment .repeat-label tspan{font-size:10px}.repeat-label{cursor:help}.subexp .subexp-label tspan,.charset .charset-label tspan{dominant-baseline:text-after-edge}.subexp .subexp-box{stroke:#908c83;stroke-dasharray:6,2;stroke-width:2px;fill-opacity:0}.quote{fill:#908c83}
          </style>
              </defs>
              <metadata>
                <rdf:rdf>
                  <cc:license rdf:about="http://creativecommons.org/licenses/by/3.0/">
                    <cc:permits rdf:resource="http://creativecommons.org/ns#Reproduction"></cc:permits>
                    <cc:permits rdf:resource="http://creativecommons.org/ns#Distribution"></cc:permits>
                    <cc:requires rdf:resource="http://creativecommons.org/ns#Notice"></cc:requires>
                    <cc:requires rdf:resource="http://creativecommons.org/ns#Attribution"></cc:requires>
                    <cc:permits rdf:resource="http://creativecommons.org/ns#DerivativeWorks"></cc:permits>
                  </cc:license>
                </rdf:rdf>
              </metadata>
            <desc>Created with Snap</desc><g transform="matrix(1,0,0,1,15,9.9062)" class="root"><g transform="matrix(1,0,0,1,10,0)" class="regexp"><path d="M10,99.8438q0,-10 10,-10M767.1874389648438,99.8438q0,-10 -10,-10M10,230.5938q0,-10 10,-10M767.1874389648438,230.5938q0,-10 -10,-10M10,358.4141q0,-10 10,-10M767.1874389648438,358.4141q0,-10 -10,-10M10,486.2344q0,-10 10,-10M767.1874389648438,486.2344q0,-10 -10,-10M10,548.8983999999999q0,-10 10,-10M767.1874389648438,548.8983999999999q0,-10 -10,-10M10,617.0078972412109q0,10 10,10M767.1874389648438,617.0078972412109q0,10 -10,10M10,693.9295999999999q0,10 10,10M767.1874389648438,693.9295999999999q0,10 -10,10M10,777.7891q0,10 10,10M767.1874389648438,777.7891q0,10 -10,10M10,988.093797241211q0,10 10,10M767.1874389648438,988.093797241211q0,10 -10,10M0,573.1484870910645q10,0 10,-10V99.8438M777.1874389648438,573.1484870910645q-10,0 -10,-10V99.8438M0,573.1484870910645q10,0 10,10V988.093797241211M777.1874389648438,573.1484870910645q-10,0 -10,10V988.093797241211"></path><g transform="matrix(1,0,0,1,20,0)" class="regexp-matches"><path d="M0,89.8438h17.0077M720.1796610351563,89.8438H737.1874389648438M0,220.5938h147.414M599.7733499999999,220.5938H737.1874389648438M0,348.4141h113.4062M623.7812250000001,348.4141H737.1874389648438M0,476.2344h148.8593M598.32805,476.2344H737.1874389648438M0,538.8983999999999h248.1718M489.015575,538.8983999999999H737.1874389648438M0,627.0078972412109h10M727.1874444824218,627.0078972412109H737.1874389648438M0,703.9295999999999h262.1797M475.007825,703.9295999999999H737.1874389648438M0,787.7891h107.1093M630.0780194824218,787.7891H737.1874389648438M0,998.093797241211h108.5312M628.6562305175781,998.093797241211H737.1874389648438"></path><g transform="matrix(1,0,0,1,7.0077,0)" class="match"><path d="M108,89.8438H143M225.859375,89.8438125H250.8594M272.1719,89.8438H292.1719"></path><g class="match-fragment subexp" transform="matrix(1,0,0,1,0,0)"><rect rx="3" ry="3" class="subexp-box" transform="matrix(1,0,0,1,0,11.0938)" width="118" height="157.5"></rect><text x="0" y="0" transform="matrix(1,0,0,1,0,11.0938)" class="subexp-label"><tspan>group #1</tspan></text><g transform="matrix(1,0,0,1,10,21.0938)" class="regexp"><path d="M10,21.75q0,-10 10,-10M88,21.75q0,-10 -10,-10M10,50.25q0,-10 10,-10M88,50.25q0,-10 -10,-10M0,68.75c10,0 10,0 20,0M98,68.75c-10,0 -10,0 -20,0M10,87.25q0,10 10,10M88,87.25q0,10 -10,10M10,115.75q0,10 10,10M88,115.75q0,10 -10,10M0,68.75q10,0 10,-10V21.75M98,68.75q-10,0 -10,-10V21.75M0,68.75q10,0 10,10V115.75M98,68.75q-10,0 -10,10V115.75"></path><g transform="matrix(1,0,0,1,20,0)" class="regexp-matches"><path d="M0,11.75h14.0156M43.98435,11.75H58M0,40.25h0M58,40.25H58M0,68.75h5M53,68.75H58M0,97.25h1.6719M56.32815,97.25H58M0,125.75h5.3359M52.664025,125.75H58"></path><g class="match match-fragment literal" transform="matrix(1,0,0,1,14.0156,0)"><g class="label"><rect width="29.96875" height="23.5" rx="3" ry="3"></rect><text x="0" y="0" transform="matrix(1,0,0,1,5,16.75)"><tspan class="quote">“</tspan><tspan>fix</tspan><tspan class="quote">”</tspan></text></g></g><g class="match match-fragment literal" transform="matrix(1,0,0,1,0,28.5)"><g class="label"><rect width="58" height="23.5" rx="3" ry="3"></rect><text x="0" y="0" transform="matrix(1,0,0,1,5,16.75)"><tspan class="quote">“</tspan><tspan>prevent</tspan><tspan class="quote">”</tspan></text></g></g><g class="match match-fragment literal" transform="matrix(1,0,0,1,5,57)"><g class="label"><rect width="48" height="23.5" rx="3" ry="3"></rect><text x="0" y="0" transform="matrix(1,0,0,1,5,16.75)"><tspan class="quote">“</tspan><tspan>found</tspan><tspan class="quote">”</tspan></text></g></g><g class="match match-fragment literal" transform="matrix(1,0,0,1,1.6719,85.5)"><g class="label"><rect width="54.65625" height="23.5" rx="3" ry="3"></rect><text x="0" y="0" transform="matrix(1,0,0,1,5,16.75)"><tspan class="quote">“</tspan><tspan>protect</tspan><tspan class="quote">”</tspan></text></g></g><g class="match match-fragment literal" transform="matrix(1,0,0,1,5.3359,114)"><g class="label"><rect width="47.328125" height="23.5" rx="3" ry="3"></rect><text x="0" y="0" transform="matrix(1,0,0,1,5,16.75)"><tspan class="quote">“</tspan><tspan>patch</tspan><tspan class="quote">”</tspan></text></g></g></g></g></g><g class="match-fragment" transform="matrix(1,0,0,1,128,68.086)"><path d="M0,21.7578125q10,0 10,-10v-1.7578125q0,-10 10,-10h72.859375q10,0 10,10v1.7578125q0,10 10,10M15,21.7578125q-10,0 -10,10v1.7578125q0,10 10,10h82.859375q10,0 10,-10v-1.7578125q0,-10 -10,-10M107.859375,36.7578125l5,-5m-5,5l-5,-5"></path><g class="any-character" transform="matrix(1,0,0,1,15,10)"><g class="label"><rect width="82.859375" height="23.515625"></rect><text x="0" y="0" transform="matrix(1,0,0,1,5,16.7578)"><tspan>any character</tspan></text></g></g></g><g class="match-fragment literal" transform="matrix(1,0,0,1,250.8594,78.0938)"><g class="label"><rect width="21.3125" height="23.5" rx="3" ry="3"></rect><text x="0" y="0" transform="matrix(1,0,0,1,5,16.75)"><tspan class="quote">“</tspan><tspan> </tspan><tspan class="quote">”</tspan></text></g></g><g class="match-fragment subexp" transform="matrix(1,0,0,1,282.1719,8.4844)"><rect rx="3" ry="3" class="subexp-box" transform="matrix(1,0,0,1,0,11.0938)" width="441.00006103515625" height="140.5312271118164"></rect><text x="0" y="0" transform="matrix(1,0,0,1,0,11.0938)" class="subexp-label"><tspan>group #2</tspan></text><g transform="matrix(1,0,0,1,10,21.0938)" class="regexp"><path d="M10,31.757800000000003q0,-10 10,-10M411.00006103515625,31.757800000000003q0,-10 -10,-10M0,60.2656135559082c10,0 10,-0.000013555908196849487 20,-0.000013555908196849487M421.00006103515625,60.2656135559082c-10,0 -10,-0.000013555908196849487 -20,-0.000013555908196849487M10,88.77340000000001q0,10 10,10M411.00006103515625,88.77340000000001q0,10 -10,10M0,60.2656135559082q10,0 10,-10V31.757800000000003M421.00006103515625,60.2656135559082q-10,0 -10,-10V31.757800000000003M0,60.2656135559082q10,0 10,10V88.77340000000001M421.00006103515625,60.2656135559082q-10,0 -10,10V88.77340000000001"></path><g transform="matrix(1,0,0,1,20,0)" class="regexp-matches"><path d="M0,21.757800000000003h0M381.00005,21.757800000000003H381.00006103515625M0,60.265600000000006h168.5157M212.48445,60.265600000000006H381.00006103515625M0,98.77340000000001h78.4141M302.585975,98.77340000000001H381.00006103515625"></path><g class="match" transform="matrix(1,0,0,1,0,0)"><path d="M41.3125,21.757800000000003H66.3125M149.171875,21.7578125H174.1719M201.4844,21.757800000000003H226.4844M309.343775,21.7578125H334.3438"></path><g class="match-fragment literal" transform="matrix(1,0,0,1,0,10.0078)"><g class="label"><rect width="41.3125" height="23.5" rx="3" ry="3"></rect><text x="0" y="0" transform="matrix(1,0,0,1,5,16.75)"><tspan class="quote">“</tspan><tspan>man</tspan><tspan class="quote">”</tspan></text></g></g><g class="match-fragment" transform="matrix(1,0,0,1,51.3125,0)"><path d="M0,21.7578125q10,0 10,-10v-1.7578125q0,-10 10,-10h72.859375q10,0 10,10v1.7578125q0,10 10,10M15,21.7578125q-10,0 -10,10v1.7578125q0,10 10,10h82.859375q10,0 10,-10v-1.7578125q0,-10 -10,-10M107.859375,36.7578125l5,-5m-5,5l-5,-5"></path><g class="any-character" transform="matrix(1,0,0,1,15,10)"><g class="label"><rect width="82.859375" height="23.515625"></rect><text x="0" y="0" transform="matrix(1,0,0,1,5,16.7578)"><tspan>any character</tspan></text></g></g></g><g class="match-fragment literal" transform="matrix(1,0,0,1,174.1719,10.0078)"><g class="label"><rect width="27.3125" height="23.5" rx="3" ry="3"></rect><text x="0" y="0" transform="matrix(1,0,0,1,5,16.75)"><tspan class="quote">“</tspan><tspan>in</tspan><tspan class="quote">”</tspan></text></g></g><g class="match-fragment" transform="matrix(1,0,0,1,211.4844,0)"><path d="M0,21.7578125q10,0 10,-10v-1.7578125q0,-10 10,-10h72.859375q10,0 10,10v1.7578125q0,10 10,10M15,21.7578125q-10,0 -10,10v1.7578125q0,10 10,10h82.859375q10,0 10,-10v-1.7578125q0,-10 -10,-10M107.859375,36.7578125l5,-5m-5,5l-5,-5"></path><g class="any-character" transform="matrix(1,0,0,1,15,10)"><g class="label"><rect width="82.859375" height="23.515625"></rect><text x="0" y="0" transform="matrix(1,0,0,1,5,16.7578)"><tspan>any character</tspan></text></g></g></g><g class="match-fragment literal" transform="matrix(1,0,0,1,334.3438,10.0078)"><g class="label"><rect width="46.65625" height="23.5" rx="3" ry="3"></rect><text x="0" y="0" transform="matrix(1,0,0,1,5,16.75)"><tspan class="quote">“</tspan><tspan>midle</tspan><tspan class="quote">”</tspan></text></g></g></g><g class="match match-fragment literal" transform="matrix(1,0,0,1,168.5157,48.5156)"><g class="label"><rect width="43.96875" height="23.5" rx="3" ry="3"></rect><text x="0" y="0" transform="matrix(1,0,0,1,5,16.75)"><tspan class="quote">“</tspan><tspan>mitm</tspan><tspan class="quote">”</tspan></text></g></g><g transform="matrix(1,0,0,1,78.4141,77.0156)" class="match"><path d="M53.328125,21.757800000000003H78.3281M161.187475,21.7578125H186.1875"></path><g class="match-fragment literal" transform="matrix(1,0,0,1,0,10.0078)"><g class="label"><rect width="53.328125" height="23.5" rx="3" ry="3"></rect><text x="0" y="0" transform="matrix(1,0,0,1,5,16.75)"><tspan class="quote">“</tspan><tspan>bucket</tspan><tspan class="quote">”</tspan></text></g></g><g class="match-fragment" transform="matrix(1,0,0,1,63.3281,0)"><path d="M0,21.7578125q10,0 10,-10v-1.7578125q0,-10 10,-10h72.859375q10,0 10,10v1.7578125q0,10 10,10M15,21.7578125q-10,0 -10,10v1.7578125q0,10 10,10h82.859375q10,0 10,-10v-1.7578125q0,-10 -10,-10M107.859375,36.7578125l5,-5m-5,5l-5,-5"></path><g class="any-character" transform="matrix(1,0,0,1,15,10)"><g class="label"><rect width="82.859375" height="23.515625"></rect><text x="0" y="0" transform="matrix(1,0,0,1,5,16.7578)"><tspan>any character</tspan></text></g></g></g><g class="match-fragment literal" transform="matrix(1,0,0,1,186.1875,10)"><g class="label"><rect width="37.984375" height="23.515625" rx="3" ry="3"></rect><text x="0" y="0" transform="matrix(1,0,0,1,5,16.7578)"><tspan class="quote">“</tspan><tspan>brig</tspan><tspan class="quote">”</tspan></text></g></g></g></g></g></g></g><g transform="matrix(1,0,0,1,137.414,173.5)" class="match"><path d="M84.65625,47.0938H119.6563M202.515675,47.0938125H227.5156M284.843725,47.0938125H309.8438M392.703175,47.0938125H417.7031"></path><g class="match-fragment subexp" transform="matrix(1,0,0,1,0,0)"><rect rx="3" ry="3" class="subexp-box" transform="matrix(1,0,0,1,0,11.0938)" width="94.65625" height="72"></rect><text x="0" y="0" transform="matrix(1,0,0,1,0,11.0938)" class="subexp-label"><tspan>group #3</tspan></text><g transform="matrix(1,0,0,1,10,21.0938)" class="regexp"><path d="M0,26c10,0 10,-14.25 20,-14.25M74.65625,26c-10,0 -10,-14.25 -20,-14.25M0,26c10,0 10,14.25 20,14.25M74.65625,26c-10,0 -10,14.25 -20,14.25"></path><g transform="matrix(1,0,0,1,20,0)" class="regexp-matches"><path d="M0,11.75h1.6641M32.992225,11.75H34.65625M0,40.25h0M34.65625,40.25H34.65625"></path><g class="match match-fragment literal" transform="matrix(1,0,0,1,1.6641,0)"><g class="label"><rect width="31.328125" height="23.5" rx="3" ry="3"></rect><text x="0" y="0" transform="matrix(1,0,0,1,5,16.75)"><tspan class="quote">“</tspan><tspan>un</tspan><tspan class="quote">”</tspan></text></g></g><g class="match match-fragment literal" transform="matrix(1,0,0,1,0,28.5)"><g class="label"><rect width="34.65625" height="23.5" rx="3" ry="3"></rect><text x="0" y="0" transform="matrix(1,0,0,1,5,16.75)"><tspan class="quote">“</tspan><tspan>not</tspan><tspan class="quote">”</tspan></text></g></g></g></g></g><g class="match-fragment" transform="matrix(1,0,0,1,104.6563,25.336)"><path d="M0,21.7578125q10,0 10,-10v-1.7578125q0,-10 10,-10h72.859375q10,0 10,10v1.7578125q0,10 10,10M15,21.7578125q-10,0 -10,10v1.7578125q0,10 10,10h82.859375q10,0 10,-10v-1.7578125q0,-10 -10,-10M107.859375,36.7578125l5,-5m-5,5l-5,-5"></path><g class="any-character" transform="matrix(1,0,0,1,15,10)"><g class="label"><rect width="82.859375" height="23.515625"></rect><text x="0" y="0" transform="matrix(1,0,0,1,5,16.7578)"><tspan>any character</tspan></text></g></g></g><g class="match-fragment literal" transform="matrix(1,0,0,1,227.5156,35.336)"><g class="label"><rect width="57.328125" height="23.515625" rx="3" ry="3"></rect><text x="0" y="0" transform="matrix(1,0,0,1,5,16.7578)"><tspan class="quote">“</tspan><tspan>encrypt</tspan><tspan class="quote">”</tspan></text></g></g><g class="match-fragment" transform="matrix(1,0,0,1,294.8438,25.336)"><path d="M0,21.7578125q10,0 10,-10v-1.7578125q0,-10 10,-10h72.859375q10,0 10,10v1.7578125q0,10 10,10M15,21.7578125q-10,0 -10,10v1.7578125q0,10 10,10h82.859375q10,0 10,-10v-1.7578125q0,-10 -10,-10M107.859375,36.7578125l5,-5m-5,5l-5,-5"></path><g class="any-character" transform="matrix(1,0,0,1,15,10)"><g class="label"><rect width="82.859375" height="23.515625"></rect><text x="0" y="0" transform="matrix(1,0,0,1,5,16.7578)"><tspan>any character</tspan></text></g></g></g><g class="match-fragment literal" transform="matrix(1,0,0,1,417.7031,35.3438)"><g class="label"><rect width="44.65625" height="23.5" rx="3" ry="3"></rect><text x="0" y="0" transform="matrix(1,0,0,1,5,16.75)"><tspan class="quote">“</tspan><tspan> data</tspan><tspan class="quote">”</tspan></text></g></g></g><g transform="matrix(1,0,0,1,103.4062,261.5)" class="match"><path d="M104,86.9141H139M221.859375,86.9141125H256.8594"></path><g class="match-fragment subexp" transform="matrix(1,0,0,1,0,25.5703)"><rect rx="3" ry="3" class="subexp-box" transform="matrix(1,0,0,1,0,11.0938)" width="114" height="100.5"></rect><text x="0" y="0" transform="matrix(1,0,0,1,0,11.0938)" class="subexp-label"><tspan>group #4</tspan></text><g transform="matrix(1,0,0,1,10,21.0938)" class="regexp"><path d="M10,21.75q0,-10 10,-10M84,21.75q0,-10 -10,-10M0,40.25c10,0 10,0 20,0M94,40.25c-10,0 -10,0 -20,0M10,58.75q0,10 10,10M84,58.75q0,10 -10,10M0,40.25q10,0 10,-10V21.75M94,40.25q-10,0 -10,-10V21.75M0,40.25q10,0 10,10V58.75M94,40.25q-10,0 -10,10V58.75"></path><g transform="matrix(1,0,0,1,20,0)" class="regexp-matches"><path d="M0,11.75h4.0078M49.992175,11.75H54M0,40.25h8M46,40.25H54M0,68.75h0M54,68.75H54"></path><g class="match match-fragment literal" transform="matrix(1,0,0,1,4.0078,0)"><g class="label"><rect width="45.984375" height="23.5" rx="3" ry="3"></rect><text x="0" y="0" transform="matrix(1,0,0,1,5,16.75)"><tspan class="quote">“</tspan><tspan>weak</tspan><tspan class="quote">”</tspan></text></g></g><g class="match match-fragment literal" transform="matrix(1,0,0,1,8,28.5)"><g class="label"><rect width="38" height="23.5" rx="3" ry="3"></rect><text x="0" y="0" transform="matrix(1,0,0,1,5,16.75)"><tspan class="quote">“</tspan><tspan>bad</tspan><tspan class="quote">”</tspan></text></g></g><g class="match match-fragment literal" transform="matrix(1,0,0,1,0,57)"><g class="label"><rect width="54" height="23.5" rx="3" ry="3"></rect><text x="0" y="0" transform="matrix(1,0,0,1,5,16.75)"><tspan class="quote">“</tspan><tspan>unsafe</tspan><tspan class="quote">”</tspan></text></g></g></g></g></g><g class="match-fragment" transform="matrix(1,0,0,1,124,65.1563)"><path d="M0,21.7578125q10,0 10,-10v-1.7578125q0,-10 10,-10h72.859375q10,0 10,10v1.7578125q0,10 10,10M15,21.7578125q-10,0 -10,10v1.7578125q0,10 10,10h82.859375q10,0 10,-10v-1.7578125q0,-10 -10,-10M107.859375,36.7578125l5,-5m-5,5l-5,-5"></path><g class="any-character" transform="matrix(1,0,0,1,15,10)"><g class="label"><rect width="82.859375" height="23.515625"></rect><text x="0" y="0" transform="matrix(1,0,0,1,5,16.7578)"><tspan>any character</tspan></text></g></g></g><g class="match-fragment subexp" transform="matrix(1,0,0,1,246.8594,0)"><rect rx="3" ry="3" class="subexp-box" transform="matrix(1,0,0,1,0,11.0938)" width="283.515625" height="151.640625"></rect><text x="0" y="0" transform="matrix(1,0,0,1,0,11.0938)" class="subexp-label"><tspan>group #5</tspan></text><g transform="matrix(1,0,0,1,10,21.0938)" class="regexp"><path d="M10,31.757800000000003q0,-10 10,-10M253.515625,31.757800000000003q0,-10 -10,-10M10,85.6250125q0,10 10,10M253.515625,85.6250125q0,10 -10,10M0,65.8203125q10,0 10,-10V31.757800000000003M263.515625,65.8203125q-10,0 -10,-10V31.757800000000003M0,65.8203125q10,0 10,10V85.6250125M263.515625,65.8203125q-10,0 -10,10V85.6250125"></path><g transform="matrix(1,0,0,1,20,0)" class="regexp-matches"><path d="M0,21.757800000000003h0M223.515625,21.757800000000003H223.515625M0,95.6250125h12.7578M200.757825,95.6250125H223.515625"></path><g transform="matrix(1,0,0,1,0,0)" class="match"><path d="M43.328125,21.757800000000003H68.3281M151.187475,21.7578125H176.1875"></path><g class="match-fragment literal" transform="matrix(1,0,0,1,0,10.0078)"><g class="label"><rect width="43.328125" height="23.5" rx="3" ry="3"></rect><text x="0" y="0" transform="matrix(1,0,0,1,5,16.75)"><tspan class="quote">“</tspan><tspan>pass</tspan><tspan class="quote">”</tspan></text></g></g><g class="match-fragment" transform="matrix(1,0,0,1,53.3281,0)"><path d="M0,21.7578125q10,0 10,-10v-1.7578125q0,-10 10,-10h72.859375q10,0 10,10v1.7578125q0,10 10,10M15,21.7578125q-10,0 -10,10v1.7578125q0,10 10,10h82.859375q10,0 10,-10v-1.7578125q0,-10 -10,-10M107.859375,36.7578125l5,-5m-5,5l-5,-5"></path><g transform="matrix(1,0,0,1,15,10)" class="any-character"><g class="label"><rect width="82.859375" height="23.515625"></rect><text x="0" y="0" transform="matrix(1,0,0,1,5,16.7578)"><tspan>any character</tspan></text></g></g></g><g class="match-fragment literal" transform="matrix(1,0,0,1,176.1875,10.0078)"><g class="label"><rect width="47.328125" height="23.5" rx="3" ry="3"></rect><text x="0" y="0" transform="matrix(1,0,0,1,5,16.75)"><tspan class="quote">“</tspan><tspan> hash</tspan><tspan class="quote">”</tspan></text></g></g></g><g transform="matrix(1,0,0,1,12.7578,48.5156)" class="match"><path d="M39.984375,47.1094125H59.9844"></path><g class="match-fragment literal" transform="matrix(1,0,0,1,0,35.3516)"><g class="label"><rect width="39.984375" height="23.515625" rx="3" ry="3"></rect><text x="0" y="0" transform="matrix(1,0,0,1,5,16.7578)"><tspan class="quote">“</tspan><tspan>key </tspan><tspan class="quote">”</tspan></text></g></g><g class="match-fragment subexp" transform="matrix(1,0,0,1,49.9844,0)"><rect rx="3" ry="3" class="subexp-box" transform="matrix(1,0,0,1,0,11.0938)" width="148.015625" height="72.0312271118164"></rect><text x="0" y="0" transform="matrix(1,0,0,1,0,11.0938)" class="subexp-label"><tspan>group #6</tspan></text><g transform="matrix(1,0,0,1,10,21.0938)" class="regexp"><path d="M0,26.015613555908203c10,0 10,-14.257801055908203 20,-14.257801055908203M128.015625,26.015613555908203c-10,0 -10,-14.257801055908203 -20,-14.257801055908203M0,26.015613555908203c10,0 10,14.257798944091796 20,14.257798944091796M128.015625,26.015613555908203c-10,0 -10,14.257798944091796 -20,14.257798944091796"></path><g transform="matrix(1,0,0,1,20,0)" class="regexp-matches"><path d="M0,11.7578125h19.6719M68.343775,11.7578125H88.015625M0,40.2734125h0M88.015625,40.2734125H88.015625"></path><g class="match match-fragment literal" transform="matrix(1,0,0,1,19.6719,0)"><g class="label"><rect width="48.671875" height="23.515625" rx="3" ry="3"></rect><text x="0" y="0" transform="matrix(1,0,0,1,5,16.7578)"><tspan class="quote">“</tspan><tspan>gener</tspan><tspan class="quote">”</tspan></text></g></g><g class="match match-fragment literal" transform="matrix(1,0,0,1,0,28.5156)"><g class="label"><rect width="88.015625" height="23.515625" rx="3" ry="3"></rect><text x="0" y="0" transform="matrix(1,0,0,1,5,16.7578)"><tspan class="quote">“</tspan><tspan>management</tspan><tspan class="quote">”</tspan></text></g></g></g></g></g></g></g></g></g></g><g transform="matrix(1,0,0,1,138.8593,429.1406)" class="match"><path d="M118,47.0938H153M235.859375,47.0938125H260.8594M319.531275,47.0938H354.5313M378.50005,47.0938H413.5"></path><g class="match-fragment subexp" transform="matrix(1,0,0,1,0,0)"><rect rx="3" ry="3" class="subexp-box" transform="matrix(1,0,0,1,0,11.0938)" width="128" height="72"></rect><text x="0" y="0" transform="matrix(1,0,0,1,0,11.0938)" class="subexp-label"><tspan>group #7</tspan></text><g transform="matrix(1,0,0,1,10,21.0938)" class="regexp"><path d="M0,26c10,0 10,-14.25 20,-14.25M108,26c-10,0 -10,-14.25 -20,-14.25M0,26c10,0 10,14.25 20,14.25M108,26c-10,0 -10,14.25 -20,14.25"></path><g transform="matrix(1,0,0,1,20,0)" class="regexp-matches"><path d="M0,11.75h0M68,11.75H68M0,40.25h13.6719M54.32815,40.25H68"></path><g class="match match-fragment literal" transform="matrix(1,0,0,1,0,0)"><g class="label"><rect width="68" height="23.5" rx="3" ry="3"></rect><text x="0" y="0" transform="matrix(1,0,0,1,5,16.75)"><tspan class="quote">“</tspan><tspan>important</tspan><tspan class="quote">”</tspan></text></g></g><g class="match match-fragment literal" transform="matrix(1,0,0,1,13.6719,28.5)"><g class="label"><rect width="40.65625" height="23.5" rx="3" ry="3"></rect><text x="0" y="0" transform="matrix(1,0,0,1,5,16.75)"><tspan class="quote">“</tspan><tspan>safe</tspan><tspan class="quote">”</tspan></text></g></g></g></g></g><g class="match-fragment" transform="matrix(1,0,0,1,138,25.336)"><path d="M0,21.7578125q10,0 10,-10v-1.7578125q0,-10 10,-10h72.859375q10,0 10,10v1.7578125q0,10 10,10M15,21.7578125q-10,0 -10,10v1.7578125q0,10 10,10h82.859375q10,0 10,-10v-1.7578125q0,-10 -10,-10M107.859375,36.7578125l5,-5m-5,5l-5,-5"></path><g class="any-character" transform="matrix(1,0,0,1,15,10)"><g class="label"><rect width="82.859375" height="23.515625"></rect><text x="0" y="0" transform="matrix(1,0,0,1,5,16.7578)"><tspan>any character</tspan></text></g></g></g><g class="match-fragment literal" transform="matrix(1,0,0,1,260.8594,35.3438)"><g class="label"><rect width="58.671875" height="23.5" rx="3" ry="3"></rect><text x="0" y="0" transform="matrix(1,0,0,1,5,16.75)"><tspan class="quote">“</tspan><tspan> header</tspan><tspan class="quote">”</tspan></text></g></g><g class="match-fragment" transform="matrix(1,0,0,1,329.5313,4.25)"><path d="M0,42.8438q10,0 10,-10v-22.75000040893555q0,-10 10,-10h33.96875q10,0 10,10v22.75000040893555q0,10 10,10"></path><g class="subexp" transform="matrix(1,0,0,1,15,10)"><rect rx="3" ry="3" class="subexp-box" transform="matrix(1,0,0,1,0,11.0938)" width="43.96875" height="43.5"></rect><text x="0" y="0" transform="matrix(1,0,0,1,0,11.0938)" class="subexp-label"><tspan>group #8</tspan></text><g transform="matrix(1,0,0,1,10,21.0938)" class="regexp match match-fragment literal"><g class="label"><rect width="23.96875" height="23.5" rx="3" ry="3"></rect><text x="0" y="0" transform="matrix(1,0,0,1,5,16.75)"><tspan class="quote">“</tspan><tspan>s</tspan><tspan class="quote">”</tspan></text></g></g></g></g><g class="match-fragment literal" transform="matrix(1,0,0,1,413.5,35.3438)"><g class="label"><rect width="45.96875" height="23.5" rx="3" ry="3"></rect><text x="0" y="0" transform="matrix(1,0,0,1,5,16.75)"><tspan class="quote">“</tspan><tspan> miss</tspan><tspan class="quote">”</tspan></text></g></g></g><g transform="matrix(1,0,0,1,248.1718,517.1406)" class="match"><path d="M54,21.757800000000003H79M161.859375,21.7578125H186.8594"></path><g class="match-fragment literal" transform="matrix(1,0,0,1,0,10.0078)"><g class="label"><rect width="54" height="23.5" rx="3" ry="3"></rect><text x="0" y="0" transform="matrix(1,0,0,1,5,16.75)"><tspan class="quote">“</tspan><tspan>unsafe</tspan><tspan class="quote">”</tspan></text></g></g><g class="match-fragment" transform="matrix(1,0,0,1,64,0)"><path d="M0,21.7578125q10,0 10,-10v-1.7578125q0,-10 10,-10h72.859375q10,0 10,10v1.7578125q0,10 10,10M15,21.7578125q-10,0 -10,10v1.7578125q0,10 10,10h82.859375q10,0 10,-10v-1.7578125q0,-10 -10,-10M107.859375,36.7578125l5,-5m-5,5l-5,-5"></path><g class="any-character" transform="matrix(1,0,0,1,15,10)"><g class="label"><rect width="82.859375" height="23.515625"></rect><text x="0" y="0" transform="matrix(1,0,0,1,5,16.7578)"><tspan>any character</tspan></text></g></g></g><g class="match-fragment literal" transform="matrix(1,0,0,1,186.8594,10)"><g class="label"><rect width="53.984375" height="23.515625" rx="3" ry="3"></rect><text x="0" y="0" transform="matrix(1,0,0,1,5,16.7578)"><tspan class="quote">“</tspan><tspan> crypto</tspan><tspan class="quote">”</tspan></text></g></g></g><g transform="matrix(1,0,0,1,0,565.6563)" class="match"><path d="M107.34375,61.35159724121094H142.3438M225.203175,61.3516125H250.2031M271.5156,61.35159999999999H291.5156"></path><g class="match-fragment subexp" transform="matrix(1,0,0,1,0,0)"><rect rx="3" ry="3" class="subexp-box" transform="matrix(1,0,0,1,0,11.0938)" width="117.34375" height="100.51559448242188"></rect><text x="0" y="0" transform="matrix(1,0,0,1,0,11.0938)" class="subexp-label"><tspan>group #9</tspan></text><g transform="matrix(1,0,0,1,10,21.0938)" class="regexp"><path d="M10,21.7578125q0,-10 10,-10M87.34375,21.7578125q0,-10 -10,-10M0,40.25779724121094c10,0 10,0.00780275878906167 20,0.00780275878906167M97.34375,40.25779724121094c-10,0 -10,0.00780275878906167 -20,0.00780275878906167M10,58.765600000000006q0,10 10,10M87.34375,58.765600000000006q0,10 -10,10M0,40.25779724121094q10,0 10,-10V21.7578125M97.34375,40.25779724121094q-10,0 -10,-10V21.7578125M0,40.25779724121094q10,0 10,10V58.765600000000006M97.34375,40.25779724121094q-10,0 -10,10V58.765600000000006"></path><g transform="matrix(1,0,0,1,20,0)" class="regexp-matches"><path d="M0,11.7578125h0M57.34375,11.7578125H57.34375M0,40.2656h1.3359M56.007775,40.2656H57.34375M0,68.7656h9.6719M47.6719,68.7656H57.34375"></path><g class="match match-fragment literal" transform="matrix(1,0,0,1,0,0)"><g class="label"><rect width="57.34375" height="23.515625" rx="3" ry="3"></rect><text x="0" y="0" transform="matrix(1,0,0,1,5,16.7578)"><tspan class="quote">“</tspan><tspan>change</tspan><tspan class="quote">”</tspan></text></g></g><g class="match match-fragment literal" transform="matrix(1,0,0,1,1.3359,28.5156)"><g class="label"><rect width="54.671875" height="23.5" rx="3" ry="3"></rect><text x="0" y="0" transform="matrix(1,0,0,1,5,16.75)"><tspan class="quote">“</tspan><tspan>update</tspan><tspan class="quote">”</tspan></text></g></g><g class="match match-fragment literal" transform="matrix(1,0,0,1,9.6719,57.0156)"><g class="label"><rect width="38" height="23.5" rx="3" ry="3"></rect><text x="0" y="0" transform="matrix(1,0,0,1,5,16.75)"><tspan class="quote">“</tspan><tspan>add</tspan><tspan class="quote">”</tspan></text></g></g></g></g></g><g class="match-fragment" transform="matrix(1,0,0,1,127.3438,39.5938)"><path d="M0,21.7578125q10,0 10,-10v-1.7578125q0,-10 10,-10h72.859375q10,0 10,10v1.7578125q0,10 10,10M15,21.7578125q-10,0 -10,10v1.7578125q0,10 10,10h82.859375q10,0 10,-10v-1.7578125q0,-10 -10,-10M107.859375,36.7578125l5,-5m-5,5l-5,-5"></path><g class="any-character" transform="matrix(1,0,0,1,15,10)"><g class="label"><rect width="82.859375" height="23.515625"></rect><text x="0" y="0" transform="matrix(1,0,0,1,5,16.7578)"><tspan>any character</tspan></text></g></g></g><g class="match-fragment literal" transform="matrix(1,0,0,1,250.2031,49.6016)"><g class="label"><rect width="21.3125" height="23.5" rx="3" ry="3"></rect><text x="0" y="0" transform="matrix(1,0,0,1,5,16.75)"><tspan class="quote">“</tspan><tspan> </tspan><tspan class="quote">”</tspan></text></g></g><g class="match-fragment subexp" transform="matrix(1,0,0,1,281.5156,4.25)"><rect rx="3" ry="3" class="subexp-box" transform="matrix(1,0,0,1,0,11.0938)" width="455.6718444824219" height="92.015625"></rect><text x="0" y="0" transform="matrix(1,0,0,1,0,11.0938)" class="subexp-label"><tspan>group #10</tspan></text><g transform="matrix(1,0,0,1,10,21.0938)" class="regexp"><path d="M10,21.75q0,-10 10,-10M425.6718444824219,21.75q0,-10 -10,-10M0,36.0078125c10,0 10,14.249987500000003 20,14.249987500000003M435.6718444824219,36.0078125c-10,0 -10,14.249987500000003 -20,14.249987500000003M0,36.0078125q10,0 10,-10V21.75M435.6718444824219,36.0078125q-10,0 -10,-10V21.75"></path><g transform="matrix(1,0,0,1,20,0)" class="regexp-matches"><path d="M0,11.75h175.8437M219.828075,11.75H395.6718444824219M0,50.2578h0M395.67185,50.2578H395.6718444824219"></path><g transform="matrix(1,0,0,1,175.8437,0)" class="match match-fragment literal"><g class="label"><rect width="43.984375" height="23.5" rx="3" ry="3"></rect><text x="0" y="0" transform="matrix(1,0,0,1,5,16.75)"><tspan class="quote">“</tspan><tspan>https</tspan><tspan class="quote">”</tspan></text></g></g><g transform="matrix(1,0,0,1,0,28.5)" class="match"><path d="M36.640625,21.757800000000003H61.6406M144.499975,21.7578125H169.5M222.15625,21.757800000000003H247.1563M330.015675,21.7578125H355.0156"></path><g class="match-fragment literal" transform="matrix(1,0,0,1,0,10.0078)"><g class="label"><rect width="36.640625" height="23.5" rx="3" ry="3"></rect><text x="0" y="0" transform="matrix(1,0,0,1,5,16.75)"><tspan class="quote">“</tspan><tspan>sec</tspan><tspan class="quote">”</tspan></text></g></g><g class="match-fragment" transform="matrix(1,0,0,1,46.6406,0)"><path d="M0,21.7578125q10,0 10,-10v-1.7578125q0,-10 10,-10h72.859375q10,0 10,10v1.7578125q0,10 10,10M15,21.7578125q-10,0 -10,10v1.7578125q0,10 10,10h82.859375q10,0 10,-10v-1.7578125q0,-10 -10,-10M107.859375,36.7578125l5,-5m-5,5l-5,-5"></path><g class="any-character" transform="matrix(1,0,0,1,15,10)"><g class="label"><rect width="82.859375" height="23.515625"></rect><text x="0" y="0" transform="matrix(1,0,0,1,5,16.7578)"><tspan>any character</tspan></text></g></g></g><g class="match-fragment literal" transform="matrix(1,0,0,1,169.5,10.0078)"><g class="label"><rect width="52.65625" height="23.5" rx="3" ry="3"></rect><text x="0" y="0" transform="matrix(1,0,0,1,5,16.75)"><tspan class="quote">“</tspan><tspan>cookie</tspan><tspan class="quote">”</tspan></text></g></g><g class="match-fragment" transform="matrix(1,0,0,1,232.1563,0)"><path d="M0,21.7578125q10,0 10,-10v-1.7578125q0,-10 10,-10h72.859375q10,0 10,10v1.7578125q0,10 10,10M15,21.7578125q-10,0 -10,10v1.7578125q0,10 10,10h82.859375q10,0 10,-10v-1.7578125q0,-10 -10,-10M107.859375,36.7578125l5,-5m-5,5l-5,-5"></path><g class="any-character" transform="matrix(1,0,0,1,15,10)"><g class="label"><rect width="82.859375" height="23.515625"></rect><text x="0" y="0" transform="matrix(1,0,0,1,5,16.7578)"><tspan>any character</tspan></text></g></g></g><g class="match-fragment literal" transform="matrix(1,0,0,1,355.0156,10)"><g class="label"><rect width="40.65625" height="23.515625" rx="3" ry="3"></rect><text x="0" y="0" transform="matrix(1,0,0,1,5,16.7578)"><tspan class="quote">“</tspan><tspan> flag</tspan><tspan class="quote">”</tspan></text></g></g></g></g></g></g></g><g transform="matrix(1,0,0,1,262.1797,682.1718)" class="match"><path d="M38.640625,21.757800000000003H63.6406M146.499975,21.7578125H171.5"></path><g class="match-fragment literal" transform="matrix(1,0,0,1,0,10.0078)"><g class="label"><rect width="38.640625" height="23.5" rx="3" ry="3"></rect><text x="0" y="0" transform="matrix(1,0,0,1,5,16.75)"><tspan class="quote">“</tspan><tspan>rem</tspan><tspan class="quote">”</tspan></text></g></g><g class="match-fragment" transform="matrix(1,0,0,1,48.6406,0)"><path d="M0,21.7578125q10,0 10,-10v-1.7578125q0,-10 10,-10h72.859375q10,0 10,10v1.7578125q0,10 10,10M15,21.7578125q-10,0 -10,10v1.7578125q0,10 10,10h82.859375q10,0 10,-10v-1.7578125q0,-10 -10,-10M107.859375,36.7578125l5,-5m-5,5l-5,-5"></path><g class="any-character" transform="matrix(1,0,0,1,15,10)"><g class="label"><rect width="82.859375" height="23.515625"></rect><text x="0" y="0" transform="matrix(1,0,0,1,5,16.7578)"><tspan>any character</tspan></text></g></g></g><g class="match-fragment literal" transform="matrix(1,0,0,1,171.5,10.0078)"><g class="label"><rect width="41.328125" height="23.5" rx="3" ry="3"></rect><text x="0" y="0" transform="matrix(1,0,0,1,5,16.75)"><tspan class="quote">“</tspan><tspan> http</tspan><tspan class="quote">”</tspan></text></g></g></g><g transform="matrix(1,0,0,1,97.1093,730.6875)" class="match"><path d="M88.640625,57.101600000000005H123.6406M206.499975,57.1016125H231.5M252.8125,57.10159999999999H272.8125"></path><g class="match-fragment subexp" transform="matrix(1,0,0,1,0,10.0078)"><rect rx="3" ry="3" class="subexp-box" transform="matrix(1,0,0,1,0,11.0938)" width="98.640625" height="72"></rect><text x="0" y="0" transform="matrix(1,0,0,1,0,11.0938)" class="subexp-label"><tspan>group #11</tspan></text><g transform="matrix(1,0,0,1,10,21.0938)" class="regexp"><path d="M0,26c10,0 10,-14.25 20,-14.25M78.640625,26c-10,0 -10,-14.25 -20,-14.25M0,26c10,0 10,14.25 20,14.25M78.640625,26c-10,0 -10,14.25 -20,14.25"></path><g transform="matrix(1,0,0,1,20,0)" class="regexp-matches"><path d="M0,11.75h4.3359M34.30465,11.75H38.640625M0,40.25h0M38.640625,40.25H38.640625"></path><g class="match match-fragment literal" transform="matrix(1,0,0,1,4.3359,0)"><g class="label"><rect width="29.96875" height="23.5" rx="3" ry="3"></rect><text x="0" y="0" transform="matrix(1,0,0,1,5,16.75)"><tspan class="quote">“</tspan><tspan>fix</tspan><tspan class="quote">”</tspan></text></g></g><g class="match match-fragment literal" transform="matrix(1,0,0,1,0,28.5)"><g class="label"><rect width="38.640625" height="23.5" rx="3" ry="3"></rect><text x="0" y="0" transform="matrix(1,0,0,1,5,16.75)"><tspan class="quote">“</tspan><tspan>rem</tspan><tspan class="quote">”</tspan></text></g></g></g></g></g><g class="match-fragment" transform="matrix(1,0,0,1,108.6406,35.3438)"><path d="M0,21.7578125q10,0 10,-10v-1.7578125q0,-10 10,-10h72.859375q10,0 10,10v1.7578125q0,10 10,10M15,21.7578125q-10,0 -10,10v1.7578125q0,10 10,10h82.859375q10,0 10,-10v-1.7578125q0,-10 -10,-10M107.859375,36.7578125l5,-5m-5,5l-5,-5"></path><g class="any-character" transform="matrix(1,0,0,1,15,10)"><g class="label"><rect width="82.859375" height="23.515625"></rect><text x="0" y="0" transform="matrix(1,0,0,1,5,16.7578)"><tspan>any character</tspan></text></g></g></g><g class="match-fragment literal" transform="matrix(1,0,0,1,231.5,45.3516)"><g class="label"><rect width="21.3125" height="23.5" rx="3" ry="3"></rect><text x="0" y="0" transform="matrix(1,0,0,1,5,16.75)"><tspan class="quote">“</tspan><tspan> </tspan><tspan class="quote">”</tspan></text></g></g><g class="match-fragment subexp" transform="matrix(1,0,0,1,262.8125,0)"><rect rx="3" ry="3" class="subexp-box" transform="matrix(1,0,0,1,0,11.0938)" width="280.1562194824219" height="92.01559448242188"></rect><text x="0" y="0" transform="matrix(1,0,0,1,0,11.0938)" class="subexp-label"><tspan>group #12</tspan></text><g transform="matrix(1,0,0,1,10,21.0938)" class="regexp"><path d="M0,36.00779724121094c10,0 10,-14.249997241210934 20,-14.249997241210934M260.1562194824219,36.00779724121094c-10,0 -10,-14.249997241210934 -20,-14.249997241210934M10,50.265600000000006q0,10 10,10M250.15621948242188,50.265600000000006q0,10 -10,10M0,36.00779724121094q10,0 10,10V50.265600000000006M260.1562194824219,36.00779724121094q-10,0 -10,10V50.265600000000006"></path><g transform="matrix(1,0,0,1,20,0)" class="regexp-matches"><path d="M0,21.757800000000003h0M220.156225,21.757800000000003H220.15621948242188M0,60.265600000000006h65.0703M155.085925,60.265600000000006H220.15621948242188"></path><g class="match" transform="matrix(1,0,0,1,0,0)"><path d="M50.65625,21.757800000000003H75.6563M158.515675,21.7578125H183.5156"></path><g class="match-fragment literal" transform="matrix(1,0,0,1,0,10.0078)"><g class="label"><rect width="50.65625" height="23.5" rx="3" ry="3"></rect><text x="0" y="0" transform="matrix(1,0,0,1,5,16.75)"><tspan class="quote">“</tspan><tspan>secret</tspan><tspan class="quote">”</tspan></text></g></g><g class="match-fragment" transform="matrix(1,0,0,1,60.6563,0)"><path d="M0,21.7578125q10,0 10,-10v-1.7578125q0,-10 10,-10h72.859375q10,0 10,10v1.7578125q0,10 10,10M15,21.7578125q-10,0 -10,10v1.7578125q0,10 10,10h82.859375q10,0 10,-10v-1.7578125q0,-10 -10,-10M107.859375,36.7578125l5,-5m-5,5l-5,-5"></path><g transform="matrix(1,0,0,1,15,10)" class="any-character"><g class="label"><rect width="82.859375" height="23.515625"></rect><text x="0" y="0" transform="matrix(1,0,0,1,5,16.7578)"><tspan>any character</tspan></text></g></g></g><g class="match-fragment literal" transform="matrix(1,0,0,1,183.5156,10)"><g class="label"><rect width="36.640625" height="23.515625" rx="3" ry="3"></rect><text x="0" y="0" transform="matrix(1,0,0,1,5,16.7578)"><tspan class="quote">“</tspan><tspan>key</tspan><tspan class="quote">”</tspan></text></g></g></g><g class="match match-fragment literal" transform="matrix(1,0,0,1,65.0703,48.5156)"><g class="label"><rect width="90.015625" height="23.5" rx="3" ry="3"></rect><text x="0" y="0" transform="matrix(1,0,0,1,5,16.75)"><tspan class="quote">“</tspan><tspan>hash collision</tspan><tspan class="quote">”</tspan></text></g></g></g></g></g></g><g transform="matrix(1,0,0,1,98.5312,838.7031)" class="match"><path d="M112.015625,159.39069724121094H147.0156M229.874975,159.3907125H254.875M276.1875,159.3907H296.1875"></path><g class="match-fragment subexp" transform="matrix(1,0,0,1,0,69.5391)"><rect rx="3" ry="3" class="subexp-box" transform="matrix(1,0,0,1,0,11.0938)" width="122.015625" height="157.51559448242188"></rect><text x="0" y="0" transform="matrix(1,0,0,1,0,11.0938)" class="subexp-label"><tspan>group #13</tspan></text><g transform="matrix(1,0,0,1,10,21.0938)" class="regexp"><path d="M10,21.75q0,-10 10,-10M92.015625,21.75q0,-10 -10,-10M10,50.25q0,-10 10,-10M92.015625,50.25q0,-10 -10,-10M0,68.75779724121094c10,0 10,-0.0077972412109375 20,-0.0077972412109375M102.015625,68.75779724121094c-10,0 -10,-0.0077972412109375 -20,-0.0077972412109375M10,87.2578125q0,10 10,10M92.015625,87.2578125q0,10 -10,10M10,115.7656q0,10 10,10M92.015625,115.7656q0,10 -10,10M0,68.75779724121094q10,0 10,-10V21.75M102.015625,68.75779724121094q-10,0 -10,-10V21.75M0,68.75779724121094q10,0 10,10V115.7656M102.015625,68.75779724121094q-10,0 -10,10V115.7656"></path><g transform="matrix(1,0,0,1,20,0)" class="regexp-matches"><path d="M0,11.75h7.3438M54.671925,11.75H62.015625M0,40.25h16.0234M45.992149999999995,40.25H62.015625M0,68.75h2.0078M60.0078,68.75H62.015625M0,97.2578125h0M62.015625,97.2578125H62.015625M0,125.7656h3.6797M58.33595,125.7656H62.015625"></path><g class="match match-fragment literal" transform="matrix(1,0,0,1,7.3438,0)"><g class="label"><rect width="47.328125" height="23.5" rx="3" ry="3"></rect><text x="0" y="0" transform="matrix(1,0,0,1,5,16.75)"><tspan class="quote">“</tspan><tspan>patch</tspan><tspan class="quote">”</tspan></text></g></g><g class="match match-fragment literal" transform="matrix(1,0,0,1,16.0234,28.5)"><g class="label"><rect width="29.96875" height="23.5" rx="3" ry="3"></rect><text x="0" y="0" transform="matrix(1,0,0,1,5,16.75)"><tspan class="quote">“</tspan><tspan>fix</tspan><tspan class="quote">”</tspan></text></g></g><g class="match match-fragment literal" transform="matrix(1,0,0,1,2.0078,57)"><g class="label"><rect width="58" height="23.5" rx="3" ry="3"></rect><text x="0" y="0" transform="matrix(1,0,0,1,5,16.75)"><tspan class="quote">“</tspan><tspan>prevent</tspan><tspan class="quote">”</tspan></text></g></g><g class="match match-fragment literal" transform="matrix(1,0,0,1,0,85.5)"><g class="label"><rect width="62.015625" height="23.515625" rx="3" ry="3"></rect><text x="0" y="0" transform="matrix(1,0,0,1,5,16.7578)"><tspan class="quote">“</tspan><tspan>upgrade</tspan><tspan class="quote">”</tspan></text></g></g><g class="match match-fragment literal" transform="matrix(1,0,0,1,3.6797,114.0156)"><g class="label"><rect width="54.65625" height="23.5" rx="3" ry="3"></rect><text x="0" y="0" transform="matrix(1,0,0,1,5,16.75)"><tspan class="quote">“</tspan><tspan>protect</tspan><tspan class="quote">”</tspan></text></g></g></g></g></g><g class="match-fragment" transform="matrix(1,0,0,1,132.0156,137.6329)"><path d="M0,21.7578125q10,0 10,-10v-1.7578125q0,-10 10,-10h72.859375q10,0 10,10v1.7578125q0,10 10,10M15,21.7578125q-10,0 -10,10v1.7578125q0,10 10,10h82.859375q10,0 10,-10v-1.7578125q0,-10 -10,-10M107.859375,36.7578125l5,-5m-5,5l-5,-5"></path><g class="any-character" transform="matrix(1,0,0,1,15,10)"><g class="label"><rect width="82.859375" height="23.515625"></rect><text x="0" y="0" transform="matrix(1,0,0,1,5,16.7578)"><tspan>any character</tspan></text></g></g></g><g class="match-fragment literal" transform="matrix(1,0,0,1,254.875,147.6407)"><g class="label"><rect width="21.3125" height="23.5" rx="3" ry="3"></rect><text x="0" y="0" transform="matrix(1,0,0,1,5,16.75)"><tspan class="quote">“</tspan><tspan> </tspan><tspan class="quote">”</tspan></text></g></g><g class="match-fragment subexp" transform="matrix(1,0,0,1,286.1875,0)"><rect rx="3" ry="3" class="subexp-box" transform="matrix(1,0,0,1,0,11.0938)" width="253.93753051757812" height="296.40618896484375"></rect><text x="0" y="0" transform="matrix(1,0,0,1,0,11.0938)" class="subexp-label"><tspan>group #14</tspan></text><g transform="matrix(1,0,0,1,10,21.0938)" class="regexp"><path d="M10,67.0938q0,-10 10,-10M223.93753051757812,67.0938q0,-10 -10,-10M10,119.75q0,-10 10,-10M223.93753051757812,119.75q0,-10 -10,-10M0,138.29689407348633c10,0 10,-0.046894073486328125 20,-0.046894073486328125M233.93753051757812,138.29689407348633c-10,0 -10,-0.046894073486328125 -20,-0.046894073486328125M10,156.75q0,10 10,10M223.93753051757812,156.75q0,10 -10,10M10,216.3438q0,10 10,10M223.93753051757812,216.3438q0,10 -10,10M10,254.75q0,10 10,10M223.93753051757812,254.75q0,10 -10,10M0,138.29689407348633q10,0 10,-10V67.0938M233.93753051757812,138.29689407348633q-10,0 -10,-10V67.0938M0,138.29689407348633q10,0 10,10V254.75M233.93753051757812,138.29689407348633q-10,0 -10,10V254.75"></path><g transform="matrix(1,0,0,1,20,0)" class="regexp-matches"><path d="M0,57.0938h0M193.937525,57.0938H193.93753051757812M0,109.75h76.3125M117.625,109.75H193.93753051757812M0,138.25h76.3125M117.625,138.25H193.93753051757812M0,166.75h76.3125M117.625,166.75H193.93753051757812M0,226.3438h60.984399999999994M158.148525,226.3438H193.93753051757812M0,264.75h66.6406M127.29685,264.75H193.93753051757812"></path><g class="match" transform="matrix(1,0,0,1,0,0)"><path d="M37.328125,57.0938H72.3281M134.29685,57.0938H169.2969"></path><g class="match-fragment literal" transform="matrix(1,0,0,1,0,45.3438)"><g class="label"><rect width="37.328125" height="23.5" rx="3" ry="3"></rect><text x="0" y="0" transform="matrix(1,0,0,1,5,16.75)"><tspan class="quote">“</tspan><tspan>sha</tspan><tspan class="quote">”</tspan></text></g></g><g class="match-fragment" transform="matrix(1,0,0,1,47.3281,0)"><path d="M0,57.0938q10,0 10,-10v-37.00000040893555q0,-10 10,-10h71.96875q10,0 10,10v37.00000040893555q0,10 10,10"></path><g class="subexp" transform="matrix(1,0,0,1,15,10)"><rect rx="3" ry="3" class="subexp-box" transform="matrix(1,0,0,1,0,11.0938)" width="81.96875" height="72"></rect><text x="0" y="0" transform="matrix(1,0,0,1,0,11.0938)" class="subexp-label"><tspan>group #15</tspan></text><g class="regexp" transform="matrix(1,0,0,1,10,21.0938)"><path d="M0,26c10,0 10,-14.25 20,-14.25M61.96875,26c-10,0 -10,-14.25 -20,-14.25M0,26c10,0 10,14.25 20,14.25M61.96875,26c-10,0 -10,14.25 -20,14.25"></path><g transform="matrix(1,0,0,1,20,0)" class="regexp-matches"><path d="M0,11.75h0M21.96875,11.75H21.96875M0,40.25h0.3281M21.6406,40.25H21.96875"></path><g class="match match-fragment literal" transform="matrix(1,0,0,1,0,0)"><g class="label"><rect width="21.96875" height="23.5" rx="3" ry="3"></rect><text x="0" y="0" transform="matrix(1,0,0,1,5,16.75)"><tspan class="quote">“</tspan><tspan>-</tspan><tspan class="quote">”</tspan></text></g></g><g class="match match-fragment literal" transform="matrix(1,0,0,1,0.3281,28.5)"><g class="label"><rect width="21.3125" height="23.5" rx="3" ry="3"></rect><text x="0" y="0" transform="matrix(1,0,0,1,5,16.75)"><tspan class="quote">“</tspan><tspan> </tspan><tspan class="quote">”</tspan></text></g></g></g></g></g></g><g class="match-fragment literal" transform="matrix(1,0,0,1,169.2969,45.3438)"><g class="label"><rect width="24.640625" height="23.5" rx="3" ry="3"></rect><text x="0" y="0" transform="matrix(1,0,0,1,5,16.75)"><tspan class="quote">“</tspan><tspan>1</tspan><tspan class="quote">”</tspan></text></g></g></g><g class="match match-fragment literal" transform="matrix(1,0,0,1,76.3125,98)"><g class="label"><rect width="41.3125" height="23.5" rx="3" ry="3"></rect><text x="0" y="0" transform="matrix(1,0,0,1,5,16.75)"><tspan class="quote">“</tspan><tspan>md5</tspan><tspan class="quote">”</tspan></text></g></g><g class="match match-fragment literal" transform="matrix(1,0,0,1,76.3125,126.5)"><g class="label"><rect width="41.3125" height="23.5" rx="3" ry="3"></rect><text x="0" y="0" transform="matrix(1,0,0,1,5,16.75)"><tspan class="quote">“</tspan><tspan>md2</tspan><tspan class="quote">”</tspan></text></g></g><g class="match match-fragment literal" transform="matrix(1,0,0,1,76.3125,155)"><g class="label"><rect width="41.3125" height="23.5" rx="3" ry="3"></rect><text x="0" y="0" transform="matrix(1,0,0,1,5,16.75)"><tspan class="quote">“</tspan><tspan>md4</tspan><tspan class="quote">”</tspan></text></g></g><g transform="matrix(1,0,0,1,35.7891,183.5)" class="match"><path d="M49.835925,42.8438H85.0313"></path><g class="match-fragment" transform="matrix(1,0,0,1,0,0)"><path d="M0,42.8438q10,0 10,-10v-22.75000040893555q0,-10 10,-10h35.03125q10,0 10,10v22.75000040893555q0,10 10,10"></path><g class="subexp" transform="matrix(1,0,0,1,15,10)"><rect rx="3" ry="3" class="subexp-box" transform="matrix(1,0,0,1,0,11.0938)" width="45.03125" height="43.5"></rect><text x="0" y="0" transform="matrix(1,0,0,1,0,11.0938)" class="subexp-label"><tspan>group #16</tspan></text><g class="regexp match match-fragment literal" transform="matrix(1,0,0,1,10.1953,21.0938)"><g class="label"><rect width="24.640625" height="23.5" rx="3" ry="3"></rect><text x="0" y="0" transform="matrix(1,0,0,1,5,16.75)"><tspan class="quote">“</tspan><tspan>3</tspan><tspan class="quote">”</tspan></text></g></g></g></g><g class="match-fragment literal" transform="matrix(1,0,0,1,85.0313,31.0938)"><g class="label"><rect width="37.328125" height="23.5" rx="3" ry="3"></rect><text x="0" y="0" transform="matrix(1,0,0,1,5,16.75)"><tspan class="quote">“</tspan><tspan>des</tspan><tspan class="quote">”</tspan></text></g></g></g><g class="match match-fragment literal" transform="matrix(1,0,0,1,66.6406,253)"><g class="label"><rect width="60.65625" height="23.5" rx="3" ry="3"></rect><text x="0" y="0" transform="matrix(1,0,0,1,5,16.75)"><tspan class="quote">“</tspan><tspan>collision</tspan><tspan class="quote">”</tspan></text></g></g></g></g></g></g></g></g><path d="M10,573.1484870910645H0M787.1874389648438,573.1484870910645H797.1874389648438"></path><circle cx="0" cy="573.1484870910645" r="5"></circle><circle cx="797.1874389648438" cy="573.1484870910645" r="5"></circle></g></svg>
          